PathFileType	4	(X/Y/Z)	Patient4_TMGait_0pt6_02_left_10.trc.trc
DataRate	CameraRate	NumFrames	NumMarkers	Units	OrigDataRate	OrigDataStartFrame	OrigNumFrames
75.268817204301	75.268817204301	4	33	mm	75.268817204301	124	       141
Frame#	Time	Sacral			L.Shoulder			Chest			R.Shoulder			Neck			R.ASIS			L.ASIS			R.Thigh.Superior			R.Thigh.Lateral			R.Thigh.Inferior			R.Patella			L.Thigh.Superior			L.Thigh.Lateral			L.Thigh.Inferior			L.Patella			L.Shank.Superior			L.Shank.Lateral			L.Shank.Inferior			R.Shank.Superior			R.Shank.Lateral			R.Shank.Inferior			R.Heel			R.Midfoot.Superior			R.Midfoot.Lateral			R.Toe			L.Heel			L.Midfoot.Lateral			L.Midfoot.Superior			L.Toe			L.Elbow			L.Wrist			R.Elbow			R.Wrist			
		X1	Y1	Z1	X2	Y2	Z2	X3	Y3	Z3	X4	Y4	Z4	X5	Y5	Z5	X6	Y6	Z6	X7	Y7	Z7	X8	Y8	Z8	X9	Y9	Z9	X10	Y10	Z10	X11	Y11	Z11	X12	Y12	Z12	X13	Y13	Z13	X14	Y14	Z14	X15	Y15	Z15	X16	Y16	Z16	X17	Y17	Z17	X18	Y18	Z18	X19	Y19	Z19	X20	Y20	Z20	X21	Y21	Z21	X22	Y22	Z22	X23	Y23	Z23	X24	Y24	Z24	X25	Y25	Z25	X26	Y26	Z26	X27	Y27	Z27	X28	Y28	Z28	X29	Y29	Z29	X30	Y30	Z30	X31	Y31	Z31	X32	Y32	Z32	X33	Y33	Z33	

124	13.844142857143	689.023411125363	995.642355833971	482.629014350105	833.077715312212	1421.210887274373	285.691257460373	958.257396032772	1354.707473759782	431.295957602620	896.802085372711	1429.750613488742	613.093864641949	849.407198670113	1482.468131979542	435.689879983229	921.707153351367	927.399485038262	582.238501845060	890.510333559389	948.742712190382	307.724273828111	917.616605267983	712.745845083768	550.474548610967	813.007635013657	617.929367297389	610.062308794102	871.400899972644	553.617604249090	526.668979198491	848.523092948566	465.288776907268	527.585901235963	969.815758271825	770.730783147801	340.757677493421	920.361609355940	638.068585421003	269.802137944547	1022.514957219720	581.066352541296	332.981307940953	1044.528286688445	512.718746271296	333.692810993979	1028.206784005633	438.999906383083	323.471834846112	961.034562255719	309.868544519336	273.865412209720	1044.773534458993	211.013586513271	332.905593483357	803.874289216182	383.439028623822	532.964773636607	714.229589529477	294.486207458819	594.083889583343	732.392308050320	195.596024280818	527.529888972835	572.165951025048	44.202415166394	497.184671554854	744.031428994016	95.017094616547	532.654611249400	654.493537376495	36.948679820671	571.820548337105	862.740908317311	39.745992239691	564.669431024035	955.736034178451	39.000989283518	374.367228939421	1028.468087504494	39.196243033002	293.077983919237	1103.420066687005	110.914658989400	313.507692151264	1235.179981144545	72.893385648730	286.521407805938	711.734282046520	1084.332806605851	194.779262196150	768.310105962717	826.979246954345	186.151379274826	996.959551256573	1094.099652563466	717.896975006084	1216.560838857805	1060.944860623381	594.014621809174	
125	13.857428571429	690.710569848883	994.191821164968	480.966298533803	833.561257413362	1418.889999198254	282.797054810152	958.746981668254	1353.676140750569	429.059322506836	896.490651206873	1429.329450768141	610.366795326701	849.195842049731	1481.078229974212	432.535000215017	922.954362692729	925.923422073869	581.762660563542	892.990884432155	947.424755261721	307.439833569421	918.150849460901	710.808240299946	550.009112844493	812.678520823127	616.389730811756	608.914859318577	871.024027452895	551.725708805142	525.646862551781	847.424752722024	462.693272689429	526.408986046219	972.363729168508	768.532965162247	341.736204312175	922.364962656094	636.911338135394	269.853465401693	1023.453374894433	579.136009663238	334.129973340212	1043.968724201228	509.626025504124	334.716695092118	1026.612375532089	435.708681475103	323.970489316798	956.989500587588	308.020867832908	273.672677853070	1037.898716085859	207.313041716280	333.569646790050	801.098085832199	381.733625325100	531.836039475673	710.024123881379	294.267030199872	593.256086352094	726.323582320001	195.037295988110	526.887618786571	564.071448245082	45.172348347738	497.205340196572	736.293970162400	95.104488228286	532.475203756965	646.501226671272	37.447628075915	571.777848880821	854.831919685050	39.454094846438	564.780098414545	943.867782490547	38.137526252279	374.536661009110	1016.490836842629	37.000953665529	292.967854788578	1093.768364525841	106.107398211120	314.315886611945	1224.705373825250	64.221641309429	286.666331224749	714.608133296481	1080.840236427946	192.344220807796	775.698225903849	824.525652333641	182.606443804796	992.710983965924	1092.712908588797	717.318908945735	1210.898551788780	1054.895635084835	592.154882426340	
126	13.870714285714	692.270341461210	993.028718105696	479.353809958825	834.315373302806	1416.736885545964	279.797778485177	959.428851800683	1352.771770118347	426.755200997839	896.428890495692	1429.173689145091	607.534022182107	849.290679765032	1479.909253125380	429.235120528077	924.126672444553	924.693168560772	581.154438794176	895.247013077229	946.451841435670	307.101555874018	918.962526170458	709.146750876665	549.336818948977	812.882470686236	614.924834372954	607.576887931175	871.311485458718	550.002803233875	524.417319863842	847.194403395592	460.032879423391	525.178130989331	974.661803044849	766.661260015051	342.596521407218	924.210894789166	636.138205305498	269.682061545921	1024.265332718958	577.602636096418	335.061037722202	1043.451673328121	507.139794595720	335.463564692030	1025.198931061117	433.034700799726	324.260678150586	953.485786219714	306.661092782289	273.246237371467	1031.688163391335	204.351137913852	334.024574333219	798.936496942872	380.100910445463	530.616088300178	706.311300935747	294.333994299328	592.364499561355	720.589378459476	194.749307873631	526.233008249545	556.010184840968	46.778732290779	497.248659229642	728.779801563578	95.289942665863	532.341092442885	638.553560426674	38.274236716459	571.734426260350	846.966084552849	39.108134586056	564.880542638862	933.142597788091	37.608760466844	374.541513710481	1005.688170889687	35.446505290438	292.747849467673	1084.835887218147	102.372270207860	314.946197607688	1215.069039305146	57.388634654507	286.743628536467	717.926450818496	1077.458157919691	189.825656847124	783.045603465160	822.152355144320	178.850114084286	988.052236438705	1091.574503401579	716.985801005524	1204.697406415347	1048.161654462819	590.778699512276	
127	13.884000000000	693.659586962729	992.236959980932	477.807725873990	835.310353433322	1414.878078217192	276.761667193046	960.282922433617	1352.067048744700	424.415681864770	896.641507516292	1429.342180200780	604.645448669878	849.702753473314	1479.048228600224	425.865693033859	925.180532237700	923.802146065809	580.396318849640	897.209815557993	945.907691970471	306.638120338649	920.064663120435	707.873997430601	548.434312044296	813.712863875195	613.601053874547	606.069514235504	872.405279204052	548.531130764492	523.019250071025	848.024557162457	457.371738513965	523.993757588478	976.658919498381	765.256145142344	343.175914981146	925.781920214161	635.757608533632	269.325986858599	1024.880320083080	576.496291849356	335.680247643548	1042.921041071471	505.299146923480	335.941641447602	1023.898479636477	431.001691274152	324.395108832234	950.440197993784	305.815736220119	272.670609917383	1026.066988129745	202.145897796095	334.326424522988	797.563307867479	378.598630174891	529.378795967742	703.227286434271	294.798124620678	591.436046928176	715.330990388982	194.836911034700	525.608683451067	548.075071303901	49.245897764423	497.300033554963	721.592472534968	95.601888655525	532.276959034502	630.699274989030	39.551736897382	571.679869201717	839.137373900425	38.723617341306	564.961154045616	923.557610663456	37.369056497587	374.438060881380	996.052737701436	34.494484575310	292.478076247416	1076.587655317421	99.725410076128	315.419700296770	1206.253545020348	52.475116213630	286.768393414666	721.706311767549	1074.322659656018	187.240067627614	790.324613207417	819.967807903674	174.920900914216	982.998148087073	1090.761261655923	716.833343750741	1197.942288251051	1040.788168670625	589.897617386324	
